<svg width="41" height="41" viewBox="0 0 41 41" fill="none" xmlns="http://www.w3.org/2000/svg">
<mask id="mask0_77_333" style="mask-type:alpha" maskUnits="userSpaceOnUse" x="0" y="0" width="41" height="41">
<rect x="0.75" y="0.476562" width="40" height="40" fill="#D9D9D9"/>
</mask>
<g mask="url(#mask0_77_333)">
<path d="M9.91667 29.6432C7.36111 29.6432 5.19444 28.7543 3.41667 26.9765C1.63889 25.1988 0.75 23.0321 0.75 20.4765C0.75 17.921 1.63889 15.7543 3.41667 13.9765C5.19444 12.1988 7.36111 11.3099 9.91667 11.3099C10.9444 11.3099 11.9306 11.4904 12.875 11.8515C13.8194 12.2127 14.6667 12.7265 15.4167 13.3932L18.25 15.9765L15.75 18.2265L13.1667 15.8932C12.7222 15.5043 12.2222 15.1988 11.6667 14.9765C11.1111 14.7543 10.5278 14.6432 9.91667 14.6432C8.30556 14.6432 6.93056 15.2127 5.79167 16.3515C4.65278 17.4904 4.08333 18.8654 4.08333 20.4765C4.08333 22.0877 4.65278 23.4627 5.79167 24.6015C6.93056 25.7404 8.30556 26.3099 9.91667 26.3099C10.5278 26.3099 11.1111 26.1988 11.6667 25.9765C12.2222 25.7543 12.7222 25.4488 13.1667 25.0599L26.0833 13.3932C26.8333 12.7265 27.6806 12.2127 28.625 11.8515C29.5694 11.4904 30.5556 11.3099 31.5833 11.3099C34.1389 11.3099 36.3056 12.1988 38.0833 13.9765C39.8611 15.7543 40.75 17.921 40.75 20.4765C40.75 23.0321 39.8611 25.1988 38.0833 26.9765C36.3056 28.7543 34.1389 29.6432 31.5833 29.6432C30.5556 29.6432 29.5694 29.4627 28.625 29.1015C27.6806 28.7404 26.8333 28.2265 26.0833 27.5599L23.25 24.9765L25.75 22.7265L28.3333 25.0599C28.7778 25.4488 29.2778 25.7543 29.8333 25.9765C30.3889 26.1988 30.9722 26.3099 31.5833 26.3099C33.1944 26.3099 34.5694 25.7404 35.7083 24.6015C36.8472 23.4627 37.4167 22.0877 37.4167 20.4765C37.4167 18.8654 36.8472 17.4904 35.7083 16.3515C34.5694 15.2127 33.1944 14.6432 31.5833 14.6432C30.9722 14.6432 30.3889 14.7543 29.8333 14.9765C29.2778 15.1988 28.7778 15.5043 28.3333 15.8932L15.4167 27.5599C14.6667 28.2265 13.8194 28.7404 12.875 29.1015C11.9306 29.4627 10.9444 29.6432 9.91667 29.6432Z" fill="#FDF0D5"/>
</g>
</svg>
