<svg width="28" height="35" viewBox="0 0 28 35" fill="none" xmlns="http://www.w3.org/2000/svg">
    <path
        d="M9.58342 23.4765L14.2501 19.9765L18.8334 23.4765L17.0834 17.8099L21.7501 14.1432H16.0834L14.2501 8.47654L12.4167 14.1432H6.75008L11.3334 17.8099L9.58342 23.4765ZM14.2501 34.1432C10.389 33.171 7.20147 30.9557 4.68758 27.4974C2.17369 24.039 0.916748 20.1988 0.916748 15.9765V5.80988L14.2501 0.809875L27.5834 5.80988V15.9765C27.5834 20.1988 26.3265 24.039 23.8126 27.4974C21.2987 30.9557 18.1112 33.171 14.2501 34.1432ZM14.2501 30.6432C17.139 29.7265 19.5279 27.8932 21.4167 25.1432C23.3056 22.3932 24.2501 19.3377 24.2501 15.9765V8.10154L14.2501 4.35154L4.25008 8.10154V15.9765C4.25008 19.3377 5.19453 22.3932 7.08341 25.1432C8.9723 27.8932 11.3612 29.7265 14.2501 30.6432Z"
        fill="#FDF0D5" />
</svg>