<svg width="41" height="40" viewBox="0 0 41 40" fill="none" xmlns="http://www.w3.org/2000/svg">
<mask id="mask0_77_324" style="mask-type:alpha" maskUnits="userSpaceOnUse" x="0" y="0" width="41" height="40">
<rect x="0.25" width="40" height="40" fill="#D9D9D9"/>
</mask>
<g mask="url(#mask0_77_324)">
<path d="M20.2501 27.3334L12.9167 20.0001L20.2501 12.6667L27.5834 20.0001L20.2501 27.3334ZM22.5834 35.6251C22.2779 35.9306 21.9167 36.1667 21.5001 36.3334C21.0834 36.5001 20.6667 36.5834 20.2501 36.5834C19.8334 36.5834 19.4167 36.5001 19.0001 36.3334C18.5834 36.1667 18.2223 35.9306 17.9167 35.6251L4.62508 22.3334C4.31953 22.0279 4.08341 21.6667 3.91675 21.2501C3.75008 20.8334 3.66675 20.4167 3.66675 20.0001C3.66675 19.5834 3.75008 19.1667 3.91675 18.7501C4.08341 18.3334 4.31953 17.9723 4.62508 17.6667L17.8751 4.41675C18.2084 4.08341 18.5765 3.83341 18.9792 3.66675C19.382 3.50008 19.8056 3.41675 20.2501 3.41675C20.6945 3.41675 21.1181 3.50008 21.5209 3.66675C21.9237 3.83341 22.2917 4.08341 22.6251 4.41675L35.8751 17.6667C36.1806 17.9723 36.4167 18.3334 36.5834 18.7501C36.7501 19.1667 36.8334 19.5834 36.8334 20.0001C36.8334 20.4167 36.7501 20.8334 36.5834 21.2501C36.4167 21.6667 36.1806 22.0279 35.8751 22.3334L22.5834 35.6251ZM20.2501 32.0001L32.2501 20.0001L20.2501 8.00008L8.25008 20.0001L20.2501 32.0001Z" fill="#FDF0D5"/>
</g>
</svg>
