<svg width="41" height="41" viewBox="0 0 41 41" fill="none" xmlns="http://www.w3.org/2000/svg">
    <mask id="mask0_77_316" style="mask-type:alpha" maskUnits="userSpaceOnUse" x="0" y="0" width="41" height="41">
        <rect x="0.75" y="0.0927734" width="40" height="40" fill="#D9D9D9" />
    </mask>
    <g mask="url(#mask0_77_316)">
        <path
            d="M20.7503 15.0929L14.917 9.25954L20.7503 3.42621L26.5837 9.25954L20.7503 15.0929ZM2.41699 33.4262V26.7595C2.41699 25.8151 2.74338 25.0234 3.39616 24.3845C4.04894 23.7457 4.83366 23.4262 5.75033 23.4262H11.2087C11.7642 23.4262 12.292 23.5651 12.792 23.8429C13.292 24.1207 13.6948 24.4957 14.0003 24.9679C14.8059 26.0512 15.7989 26.8984 16.9795 27.5095C18.16 28.1207 19.417 28.4262 20.7503 28.4262C22.1114 28.4262 23.3823 28.1207 24.5628 27.5095C25.7434 26.8984 26.7225 26.0512 27.5003 24.9679C27.8614 24.4957 28.285 24.1207 28.7712 23.8429C29.2573 23.5651 29.7642 23.4262 30.292 23.4262H35.7503C36.6948 23.4262 37.4864 23.7457 38.1253 24.3845C38.7642 25.0234 39.0837 25.8151 39.0837 26.7595V33.4262H27.417V29.6345C26.4448 30.329 25.3962 30.8568 24.2712 31.2179C23.1462 31.579 21.9725 31.7595 20.7503 31.7595C19.5559 31.7595 18.3892 31.572 17.2503 31.197C16.1114 30.822 15.0559 30.2873 14.0837 29.5929V33.4262H2.41699ZM7.41699 21.7595C6.0281 21.7595 4.84755 21.2734 3.87533 20.3012C2.9031 19.329 2.41699 18.1484 2.41699 16.7595C2.41699 15.3429 2.9031 14.1554 3.87533 13.197C4.84755 12.2387 6.0281 11.7595 7.41699 11.7595C8.83366 11.7595 10.0212 12.2387 10.9795 13.197C11.9378 14.1554 12.417 15.3429 12.417 16.7595C12.417 18.1484 11.9378 19.329 10.9795 20.3012C10.0212 21.2734 8.83366 21.7595 7.41699 21.7595ZM34.0837 21.7595C32.6948 21.7595 31.5142 21.2734 30.542 20.3012C29.5698 19.329 29.0837 18.1484 29.0837 16.7595C29.0837 15.3429 29.5698 14.1554 30.542 13.197C31.5142 12.2387 32.6948 11.7595 34.0837 11.7595C35.5003 11.7595 36.6878 12.2387 37.6462 13.197C38.6045 14.1554 39.0837 15.3429 39.0837 16.7595C39.0837 18.1484 38.6045 19.329 37.6462 20.3012C36.6878 21.2734 35.5003 21.7595 34.0837 21.7595Z"
            fill="#FDF0D5" />
    </g>
</svg>