<svg width="112" height="116" viewBox="0 0 112 116" fill="none" xmlns="http://www.w3.org/2000/svg">
<path d="M55.8333 80L74.5 61.3333C76.0556 59.7778 77.0556 57.9167 77.5 55.75C77.9444 53.5833 77.7222 51.5 76.8333 49.5C75.9444 47.5 74.6111 45.8611 72.8333 44.5833C71.0556 43.3056 69.0556 42.6667 66.8333 42.6667C64.6111 42.6667 62.6111 43.3333 60.8333 44.6667C59.0556 46 57.3889 47.4444 55.8333 49C54.2778 47.4444 52.6389 46 50.9167 44.6667C49.1944 43.3333 47.2222 42.6667 45 42.6667C42.7778 42.6667 40.7778 43.2778 39 44.5C37.2222 45.7222 35.8889 47.3333 35 49.3333C34.1111 51.4444 33.8611 53.5833 34.25 55.75C34.6389 57.9167 35.6111 59.7778 37.1667 61.3333L55.8333 80ZM45 116L42.6667 97.3333C40.3333 96.6667 37.75 95.5556 34.9167 94C32.0833 92.4445 29.7222 90.7778 27.8333 89L10.6667 96.3333L0 77.6667L14.8333 66.5C14.6111 65.1667 14.4167 63.7778 14.25 62.3333C14.0833 60.8889 14 59.5 14 58.1667C14 56.9445 14.0833 55.6389 14.25 54.25C14.4167 52.8611 14.6111 51.2778 14.8333 49.5L0 38.3333L10.6667 20L27.6667 27.1667C29.8889 25.2778 32.3056 23.5833 34.9167 22.0833C37.5278 20.5833 40.0556 19.4444 42.5 18.6667L45 0H66.3333L68.6667 18.8333C71.5556 19.8333 74.0833 20.9722 76.25 22.25C78.4167 23.5278 80.6667 25.1667 83 27.1667L100.667 20L111.333 38.3333L95.8333 50C96.2778 51.5556 96.5278 52.9722 96.5833 54.25C96.6389 55.5278 96.6667 56.7778 96.6667 58C96.6667 59.1111 96.6111 60.3056 96.5 61.5833C96.3889 62.8611 96.1667 64.4444 95.8333 66.3333L111 77.6667L100.333 96.3333L83 88.8333C80.6667 90.8333 78.3333 92.5278 76 93.9167C73.6667 95.3056 71.2222 96.3889 68.6667 97.1667L66.3333 116H45ZM49 111.333H62L64.5 93.1667C67.8333 92.2778 70.8055 91.0833 73.4167 89.5833C76.0278 88.0833 78.7778 85.9445 81.6667 83.1667L98.3333 90.3333L105 79L90.3333 68C90.8889 66 91.25 64.2222 91.4167 62.6667C91.5833 61.1111 91.6667 59.5556 91.6667 58C91.6667 56.3333 91.5833 54.7778 91.4167 53.3333C91.25 51.8889 90.8889 50.2222 90.3333 48.3333L105.333 37L98.6667 25.6667L81.5 32.8333C79.6111 30.7222 76.9722 28.6667 73.5833 26.6667C70.1944 24.6667 67.1111 23.3889 64.3333 22.8333L62.3333 4.66667H49L47 22.6667C43.6667 23.3333 40.6111 24.4444 37.8333 26C35.0556 27.5556 32.2222 29.7778 29.3333 32.6667L12.6667 25.6667L6 37L20.5 47.8333C19.9444 49.2778 19.5556 50.8889 19.3333 52.6667C19.1111 54.4444 19 56.2778 19 58.1667C19 59.8333 19.1111 61.5 19.3333 63.1667C19.5556 64.8333 19.8889 66.4444 20.3333 68L6 79L12.6667 90.3333L29.1667 83.3333C31.8333 86 34.5556 88.1111 37.3333 89.6667C40.1111 91.2222 43.2778 92.4445 46.8333 93.3333L49 111.333Z" fill="#1C1B1F"/>
</svg>
