<svg width="120" height="123" viewBox="0 0 120 123" fill="none" xmlns="http://www.w3.org/2000/svg">
<path d="M85.1667 59.3333L60.8333 36.1667C58.0556 33.5 55.75 30.5061 53.9167 27.185C52.0833 23.8639 51.1667 20.2467 51.1667 16.3333C51.1667 11.7967 52.7544 7.94 55.93 4.76334C59.1067 1.58778 62.9633 0 67.5 0C71.1667 0 74.4722 1.05556 77.4167 3.16667C80.3611 5.27778 82.9445 7.77778 85.1667 10.6667C87.3889 7.77778 89.9722 5.27778 92.9167 3.16667C95.8611 1.05556 99.1667 0 102.833 0C107.37 0 111.227 1.58778 114.403 4.76334C117.579 7.94 119.167 11.7967 119.167 16.3333C119.167 20.2467 118.25 23.8639 116.417 27.185C114.583 30.5061 112.278 33.5 109.5 36.1667L85.1667 59.3333ZM85.1667 53L105.667 33.5C108.111 31.1667 110.194 28.5556 111.917 25.6667C113.639 22.7778 114.5 19.6667 114.5 16.3333C114.5 13.1111 113.361 10.3611 111.083 8.08333C108.806 5.80556 106.056 4.66667 102.833 4.66667C99.8333 4.66667 97.1667 5.61111 94.8333 7.5C92.5 9.38889 90.3889 11.5556 88.5 14L85.1667 18.3333L81.8333 14C79.9445 11.5556 77.8333 9.38889 75.5 7.5C73.1667 5.61111 70.5 4.66667 67.5 4.66667C64.2778 4.66667 61.5278 5.80556 59.25 8.08333C56.9722 10.3611 55.8333 13.1111 55.8333 16.3333C55.8333 19.6667 56.6944 22.7778 58.4167 25.6667C60.1389 28.5556 62.2222 31.1667 64.6667 33.5L85.1667 53ZM22.6667 102.667L74.3333 118L114.333 105.667C114.333 103.333 113.788 101.694 112.698 100.75C111.609 99.8056 110.377 99.3333 109 99.3333H77.98C75.2156 99.3333 72.6111 99.2222 70.1667 99C67.7222 98.7778 65.2222 98.2222 62.6667 97.3333L48.3333 92.6667L50.1667 88L63.6667 93C65.8889 93.8889 68.3889 94.3889 71.1667 94.5C73.9445 94.6111 77.6667 94.6667 82.3333 94.6667C82.3333 92.3333 81.9445 90.5 81.1667 89.1667C80.3889 87.8333 79.2222 86.8889 77.6667 86.3333L39.5 72.3333C39.1667 72.2222 38.8611 72.1389 38.5833 72.0833C38.3056 72.0278 38 72 37.6667 72H22.6667V102.667ZM0 116V67.3333H37.47C38.0456 67.3333 38.6444 67.4 39.2667 67.5333C39.8889 67.6667 40.4667 67.8222 41 68L79.3333 82C81.3333 82.7778 83.1111 84.1945 84.6667 86.25C86.2222 88.3056 87 91.1111 87 94.6667H109C112.556 94.6667 115.139 95.75 116.75 97.9167C118.361 100.083 119.167 102.778 119.167 106V109.333L74.6667 123L22.6667 107.667V116H0ZM4.66667 111.333H18V72H4.66667V111.333Z" fill="#1C1B1F"/>
</svg>
