<svg width="90" height="118" viewBox="0 0 90 118" fill="none" xmlns="http://www.w3.org/2000/svg">
<path d="M31.3333 65.6667L36.3333 49L23.1667 39.6667H39.6667L44.6667 22.6667L49.6667 39.6667H66.1667L53 49L58 65.6667L44.6667 55.3333L31.3333 65.6667ZM13.3333 118V76.3333C9.11111 72.3333 5.83333 67.6111 3.5 62.1667C1.16667 56.7222 0 50.8889 0 44.6667C0 32.2222 4.33333 21.6667 13 13C21.6667 4.33333 32.2222 0 44.6667 0C57.1111 0 67.6667 4.33333 76.3333 13C85 21.6667 89.3333 32.2222 89.3333 44.6667C89.3333 50.8889 88.1667 56.7222 85.8333 62.1667C83.5 67.6111 80.2222 72.3333 76 76.3333V118L44.6667 109L13.3333 118ZM44.6667 84.6667C55.7778 84.6667 65.2222 80.7778 73 73C80.7778 65.2222 84.6667 55.7778 84.6667 44.6667C84.6667 33.5556 80.7778 24.1111 73 16.3333C65.2222 8.55556 55.7778 4.66667 44.6667 4.66667C33.5556 4.66667 24.1111 8.55556 16.3333 16.3333C8.55556 24.1111 4.66667 33.5556 4.66667 44.6667C4.66667 55.7778 8.55556 65.2222 16.3333 73C24.1111 80.7778 33.5556 84.6667 44.6667 84.6667ZM18 111.667L44.6667 104L71.3333 111.667V80.3333C67.6667 83.2222 63.5556 85.4445 59 87C54.4444 88.5556 49.6667 89.3333 44.6667 89.3333C39.6667 89.3333 34.8889 88.5556 30.3333 87C25.7778 85.4445 21.6667 83.2222 18 80.3333V111.667Z" fill="#1C1B1F"/>
</svg>
